<svg width="100" height="100" viewBox="0 0 100 100" fill="none" xmlns="http://www.w3.org/2000/svg">
<circle cx="50" cy="50" r="50" fill="#F15757"/>
<g clip-path="url(#clip0_2_345)">
<path d="M74.9096 65.4793C74.675 64.3502 74.0112 63.3854 73.0404 62.7625C72.0695 62.1399 70.9164 61.9389 69.7918 62.196L64.5801 63.3892V61.2587C65.6254 60.2741 66.7137 58.9886 67.4877 57.8137C68.845 55.7534 69.8055 53.4909 70.3426 51.0903C70.9812 48.2342 70.9949 45.2107 70.3819 42.3455C70.269 41.8183 69.7498 41.4818 69.2226 41.5951C68.6951 41.7076 68.3594 42.2268 68.4719 42.7544C69.0266 45.3457 69.0143 48.0809 68.4364 50.6638C67.9512 52.8328 67.083 54.8771 65.8565 56.7391C65.493 57.2911 65.052 57.8701 64.5801 58.4233V47.5987C64.5801 47.0593 64.143 46.6221 63.6036 46.6221H55.8784V36.1935C55.8784 35.6556 55.4432 35.2188 54.9053 35.2169L46.2036 35.1876C46.2025 35.1876 46.2017 35.1876 46.2006 35.1876C45.9419 35.1876 45.694 35.2898 45.5112 35.4725C45.3274 35.6556 45.224 35.9043 45.224 36.1641V41.589H37.4977C36.9587 41.589 36.5211 42.0262 36.5211 42.5656V52.2362H34.3452V50.9098C34.3452 50.3708 33.9081 49.9337 33.3687 49.9337H32.3669C32.1964 48.9949 32.0976 48.0412 32.0744 47.089C32.0171 44.7739 32.3841 42.5087 33.1646 40.3557C33.3466 39.8537 33.5533 39.3532 33.7788 38.8687C34.0065 38.3797 33.7944 37.7987 33.3057 37.571C32.8167 37.344 32.2357 37.5553 32.0084 38.0444C31.7585 38.5807 31.5296 39.1346 31.3286 39.69C30.4649 42.0723 30.0591 44.5782 30.1216 47.1371C30.1449 48.0725 30.2341 49.0086 30.3856 49.9337H25.9766C25.4372 49.9337 25 50.3708 25 50.9102V68.0756C25 68.615 25.4372 69.0521 25.9766 69.0521H33.3687C33.9081 69.0521 34.3452 68.615 34.3452 68.0756V67.1471H38.0188L52.8995 72.9836C54.2889 73.5287 55.7442 73.803 57.2071 73.803C58.1825 73.803 59.1621 73.6809 60.1269 73.4356L71.7903 70.4712C74.0044 69.9085 75.3742 67.7159 74.9096 65.4793ZM62.6274 48.5752V63.8363L60.0166 64.4341C59.7359 64.4982 59.452 64.5489 59.1667 64.5886C58.0788 64.7385 56.9687 64.7068 55.8922 64.4936C55.8876 64.4924 55.883 64.4917 55.8784 64.4905V63.0097C56.6231 61.8988 56.8699 60.4904 56.4796 59.2049C56.3709 58.8463 56.2164 58.5003 56.02 58.181C55.9753 58.1085 55.9288 58.0376 55.8803 57.9682C55.88 57.967 55.8792 57.9663 55.8784 57.9651V48.5749H62.6274V48.5752ZM47.1771 37.1441L53.9257 37.1666V56.4141L50.1541 54.8531L47.1771 53.6206V37.1441ZM38.4743 43.5421H45.2229V52.8115L44.0117 52.3102C43.893 52.261 43.766 52.2358 43.6382 52.2358H38.4743V43.5421ZM32.3921 67.099H26.9531V51.8864H31.5605C31.5624 51.8864 31.5647 51.8868 31.567 51.8868C31.5689 51.8868 31.5704 51.8864 31.5723 51.8864H32.3921V67.099ZM71.3093 68.5784L59.6458 71.5428C57.6324 72.0543 55.5462 71.9235 53.6125 71.1655L38.5601 65.2615C38.4464 65.2169 38.3255 65.1943 38.2034 65.1943H34.3452V54.1893H43.4437L49.7623 56.8047L53.22 58.236C54.4434 58.7433 55.0289 60.1784 54.5273 61.4002C54.4266 61.6455 54.3018 61.8786 54.1363 62.0865C53.5248 62.8582 52.5181 63.1985 51.5766 62.9696C51.569 62.9677 51.5613 62.9658 51.5537 62.9639C51.4973 62.9498 51.4412 62.9334 51.3855 62.9151L44.8147 60.389C44.7613 60.3684 44.733 60.3577 44.733 60.3577C44.2299 60.1639 43.6649 60.4153 43.4711 60.9188C43.2777 61.422 43.5287 61.9873 44.0323 62.1807C44.0323 62.1807 47.7371 63.6051 50.5623 64.6946C50.6191 64.7167 50.6756 64.7373 50.7324 64.7564L52.9018 65.5907C53.5576 65.8428 54.2103 66.0938 54.8927 66.2682C56.0516 66.5642 57.2544 66.6832 58.4492 66.618C59.1228 66.5814 59.7954 66.4883 60.453 66.338L63.8218 65.567C63.8252 65.5663 63.8287 65.5648 63.8321 65.564L70.2278 64.0999C70.8362 63.9607 71.4607 64.0694 71.9856 64.4062C72.5113 64.7434 72.8702 65.2657 72.9973 65.8768C73.249 67.0872 72.5075 68.2739 71.3093 68.5784Z" fill="white"/>
<path d="M37.4882 33.2153C37.7217 33.2153 37.9559 33.1322 38.1424 32.9636C39.885 31.3896 41.9659 30.1342 44.1612 29.3327C46.5397 28.4645 49.147 28.0941 51.7017 28.2619C53.5301 28.3821 55.3215 28.7724 57.0259 29.4216C57.5295 29.6135 58.094 29.361 58.2859 28.8567C58.4782 28.3527 58.2253 27.7885 57.721 27.5967C55.835 26.878 53.8529 26.4461 51.8299 26.313C49.0063 26.1276 46.1228 26.5373 43.4914 27.4982C41.0626 28.3848 38.7604 29.7737 36.8336 31.514C36.433 31.8756 36.4018 32.4932 36.7634 32.8934C36.956 33.107 37.2215 33.2153 37.4882 33.2153Z" fill="white"/>
<path d="M59.6569 40.1848C59.8419 40.3454 60.07 40.424 60.297 40.424C60.5698 40.424 60.8414 40.3103 61.0348 40.0883L69.0693 30.8395C69.4233 30.4325 69.3798 29.8157 68.9728 29.462C68.5654 29.1084 67.9489 29.1515 67.5953 29.5586L59.5604 38.8073C59.2064 39.2143 59.2499 39.8312 59.6569 40.1848Z" fill="white"/>
<path d="M66.8572 36.0096C65.5052 36.0096 64.4055 37.1094 64.4055 38.4613C64.4055 39.8132 65.5052 40.913 66.8572 40.913C68.2091 40.913 69.3089 39.8128 69.3089 38.4613C69.3089 37.1094 68.2091 36.0096 66.8572 36.0096ZM66.8572 38.9599C66.5821 38.9599 66.3586 38.7363 66.3586 38.4613C66.3586 38.1866 66.5821 37.9627 66.8572 37.9627C67.1318 37.9627 67.3557 38.1866 67.3557 38.4613C67.3557 38.7363 67.1318 38.9599 66.8572 38.9599Z" fill="white"/>
<path d="M61.4342 33.8356C62.7861 33.8356 63.8859 32.7358 63.8859 31.3839C63.8859 30.032 62.7861 28.9322 61.4342 28.9322C60.0823 28.9322 58.9825 30.032 58.9825 31.3839C58.9825 32.7358 60.0823 33.8356 61.4342 33.8356ZM61.4342 30.8849C61.7092 30.8849 61.9328 31.1089 61.9328 31.3839C61.9328 31.6586 61.7092 31.8825 61.4342 31.8825C61.1591 31.8825 60.9356 31.6586 60.9356 31.3839C60.9356 31.1089 61.1591 30.8849 61.4342 30.8849Z" fill="white"/>
<path d="M34.0164 35.5103C34.1728 35.8857 34.5577 36.1336 34.9655 36.1122C35.3688 36.0913 35.722 35.8185 35.8467 35.4355C35.9726 35.0491 35.8353 34.6089 35.5122 34.3621C35.183 34.1111 34.7206 34.0954 34.3758 34.3247C33.9932 34.5791 33.8398 35.0865 34.0164 35.5103Z" fill="white"/>
</g>
<defs>
<clipPath id="clip0_2_345">
<rect width="50" height="50" fill="white" transform="translate(25 25)"/>
</clipPath>
</defs>
</svg>
