<svg width="100" height="100" viewBox="0 0 100 100" fill="none" xmlns="http://www.w3.org/2000/svg">
<circle cx="50" cy="50" r="50" fill="#F15757"/>
<g clip-path="url(#clip0_2_347)">
<path d="M78.2792 41.9063C77.0811 40.7083 75.7006 40.3957 75.0365 40.2524C74.2291 40.0701 73.3825 40.031 72.5621 40.1352C69.2413 32.4256 60.3596 27.2035 50.0065 27.2035C40.2393 27.2035 31.6052 32.4647 28.089 40.2524C27.0602 40.031 26.0053 40.031 24.9766 40.2654C24.3124 40.4087 22.932 40.7212 21.7339 41.9194C21.5126 42.1407 19.6242 44.1203 20.067 46.9462C20.4968 49.746 22.919 51.4912 24.9897 51.9339C25.706 52.0902 26.4352 52.0771 27.1515 51.9208C27.2166 51.9077 27.2818 51.8948 27.3338 51.8817C27.5422 52.2334 28.2064 54.0956 26.5915 62.1177C26.5524 62.3261 26.5655 62.5475 26.6305 62.7559C27.5813 65.8032 29.1179 67.2878 31.6313 67.5744C31.6834 67.5744 31.7225 67.5874 31.7745 67.5874V71.4943C31.7745 72.2106 32.3606 72.7966 33.0769 72.7966C33.7932 72.7966 34.3792 72.2106 34.3792 71.4943V67.5874H65.634V71.4943C65.634 72.2106 66.22 72.7966 66.9363 72.7966C67.6526 72.7966 68.2387 72.2106 68.2387 71.4943V67.5874C68.2908 67.5874 68.3299 67.5874 68.3819 67.5744C70.8953 67.2878 72.445 65.8032 73.3826 62.7559C73.4477 62.5475 73.4608 62.3261 73.4217 62.1177C71.8068 54.0826 72.471 52.2203 72.6794 51.8817C72.7315 51.8948 72.7966 51.9077 72.8617 51.9208C73.5649 52.0771 74.3072 52.0902 75.0105 51.9339C77.0811 51.4911 79.5033 49.746 79.9331 46.9462C80.3758 44.1072 78.4876 42.1277 78.2792 41.9063ZM50.0065 29.8081C59.2006 29.8081 67.0794 34.288 70.0746 40.9427C69.6318 41.1902 69.2021 41.4636 68.7984 41.7631C67.6655 42.5575 66.6627 43.5472 65.8683 44.6933C65.2563 45.5918 64.7744 46.5685 64.4097 47.5974C63.4199 50.3322 63.1335 53.5879 63.0554 55.8539H36.9576C36.8794 53.5879 36.58 50.3322 35.6032 47.5974C35.2386 46.5685 34.7568 45.5918 34.1446 44.6933C33.3502 43.5603 32.3606 42.5575 31.2145 41.7631C30.9801 41.5938 30.7326 41.4246 30.4853 41.2683C33.5978 34.4312 41.2943 29.8081 50.0065 29.8081ZM77.3806 46.5424C77.1202 48.2224 75.5053 49.16 74.4895 49.3684C74.1119 49.4466 73.7341 49.4335 73.3696 49.3424C72.9268 49.2512 72.3147 49.134 71.6246 49.4596C69.4498 50.4363 69.2154 54.1609 70.8172 62.2872C69.9967 64.6964 68.9679 64.8787 68.1865 64.9698H31.8397C31.0584 64.8786 30.0166 64.6964 29.2091 62.2872C30.8109 54.1609 30.5765 50.4363 28.4017 49.4596C27.7115 49.1471 27.0994 49.2643 26.6567 49.3424C26.292 49.4336 25.9013 49.4466 25.5367 49.3684C24.521 49.1471 22.9061 48.2224 22.6457 46.5424C22.3982 44.9666 23.5703 43.7555 23.5703 43.7425C24.2344 43.0784 25.0418 42.8961 25.5367 42.7918C26.2009 42.6356 26.9041 42.6356 27.5683 42.7918C28.4278 42.9872 28.9617 43.3648 29.7171 43.8858C30.6026 44.5109 31.384 45.2792 31.9961 46.1648C32.478 46.8811 32.8556 47.6625 33.1422 48.4698C34.197 51.426 34.3664 55.1766 34.3664 57.1431C34.3664 57.8594 34.9524 58.4454 35.6687 58.4454H64.319C65.0353 58.4454 65.6213 57.8594 65.6213 57.1431C65.6213 55.1636 65.7907 51.413 66.8455 48.4568C67.132 47.6494 67.5097 46.868 67.9916 46.1517C68.6166 45.2662 69.385 44.4848 70.2706 43.8727C71.0129 43.3517 71.5599 42.9741 72.4063 42.7788C73.0835 42.6356 73.7737 42.6356 74.4509 42.7788C74.9458 42.8829 75.7533 43.0653 76.4174 43.7295C76.4429 43.7556 77.615 44.9667 77.3806 46.5424Z" fill="white"/>
</g>
<defs>
<clipPath id="clip0_2_347">
<rect width="60" height="60" fill="white" transform="translate(20 20)"/>
</clipPath>
</defs>
</svg>
