<svg width="19" height="20" viewBox="0 0 19 20" fill="none" xmlns="http://www.w3.org/2000/svg">
<path d="M9.4337 0.615781C9.17428 0.60371 8.90793 0.605836 8.63379 0.623103C5.32156 0.917629 2.65499 3.79972 2.65527 7.47492C2.65567 9.21502 3.28827 10.736 4.28304 12.1343C5.155 13.3814 6.12863 14.5366 7.38642 15.6402L7.40006 15.6499C8.36774 16.4649 9.71437 16.5566 10.8033 15.6548C10.8119 15.6473 10.821 15.6397 10.829 15.6317C12.1713 14.389 13.0819 13.381 13.9324 12.1246C13.9324 12.1202 13.9393 12.1159 13.9415 12.1112C14.8097 10.7546 15.5476 9.24592 15.548 7.47495C15.548 4.16798 13.325 0.796612 9.4337 0.615781ZM9.10371 3.17926C11.313 3.17926 13.1155 5.1472 13.1155 7.55792C13.1155 9.96864 11.313 11.9354 9.10371 11.9354C6.89434 11.9354 5.09079 9.96864 5.09079 7.55792C5.09079 5.1472 6.89434 3.17926 9.10371 3.17926Z" fill="#F15757"/>
<path d="M14.1782 13.3281C13.3276 14.4798 12.3853 15.5005 11.086 16.7034C11.0763 16.7126 11.0676 16.7201 11.0568 16.729C9.80548 17.7654 8.2578 17.6608 7.14572 16.724L7.13035 16.7129C5.92205 15.6527 4.94738 14.547 4.0729 13.3768L3.51798 13.7076C2.97921 14.0278 2.57935 14.5421 2.57935 15.1651C2.57935 15.7881 2.97921 16.3072 3.51798 16.6275L7.35746 18.9114C8.43506 19.5519 9.89906 19.5519 10.9766 18.9114L14.8161 16.6275C15.3548 16.3072 15.7502 15.7881 15.7502 15.1651C15.7502 14.5421 15.3548 14.0278 14.8161 13.7076L14.1782 13.3281Z" fill="#F15757"/>
</svg>
