<svg width="20" height="20" viewBox="0 0 20 20" fill="none" xmlns="http://www.w3.org/2000/svg">
<path d="M7.85467 0.732496C7.77923 0.731336 7.7042 0.743845 7.63321 0.769417C4.35347 1.90174 2.65257 4.17206 2.25828 6.69338C1.86399 9.2147 2.69208 11.9415 4.18218 14.2137C5.67228 16.4859 7.83746 18.3307 10.2769 19.0073C12.7162 19.6839 15.4384 19.0912 17.6772 16.6313C17.7695 16.5297 17.8259 16.4006 17.8376 16.2639C17.8492 16.1271 17.8156 15.9903 17.7418 15.8746L15.315 12.0268C15.2711 11.9574 15.2139 11.8973 15.1468 11.85C15.0797 11.8028 15.0039 11.7691 14.9238 11.7512C14.8436 11.7332 14.7607 11.7311 14.6798 11.7452C14.5989 11.7592 14.5216 11.7891 14.4522 11.833L11.5272 13.6739C8.92897 12.2636 7.99634 10.163 7.68857 7.5746L10.6044 5.73835C10.6738 5.69445 10.7339 5.63729 10.7812 5.57017C10.8285 5.50304 10.8621 5.42725 10.8801 5.34712C10.8981 5.267 10.9001 5.18412 10.886 5.10321C10.872 5.02231 10.8421 4.94496 10.7982 4.87559L8.36679 1.02316C8.31188 0.936364 8.23642 0.864439 8.1471 0.813743C8.05778 0.763047 7.95734 0.735142 7.85467 0.732496Z" fill="#F15757"/>
</svg>
