<svg width="20" height="20" viewBox="0 0 20 20" fill="none" xmlns="http://www.w3.org/2000/svg">
<path d="M10 15.8333C9.83452 15.8343 9.67247 15.7859 9.53453 15.6944C9.3966 15.6029 9.28904 15.4724 9.22557 15.3196C9.1621 15.1667 9.14559 14.9984 9.17815 14.8361C9.2107 14.6738 9.29085 14.5249 9.40838 14.4083L13.825 9.99999L9.40838 5.59166C9.27186 5.43224 9.20052 5.22718 9.20862 5.01745C9.21672 4.80772 9.30366 4.60877 9.45208 4.46036C9.60049 4.31194 9.79944 4.225 10.0092 4.2169C10.2189 4.2088 10.424 4.28014 10.5834 4.41666L15.5834 9.41666C15.7386 9.57279 15.8257 9.784 15.8257 10.0042C15.8257 10.2243 15.7386 10.4355 15.5834 10.5917L10.5834 15.5917C10.4282 15.7456 10.2187 15.8324 10 15.8333Z" fill="white"/>
<path d="M5.00005 15.8333C4.83452 15.8343 4.67247 15.7859 4.53453 15.6944C4.3966 15.6029 4.28904 15.4724 4.22557 15.3196C4.1621 15.1667 4.14559 14.9984 4.17815 14.8361C4.2107 14.6738 4.29085 14.5249 4.40838 14.4083L8.82505 10L4.40838 5.59166C4.25146 5.43474 4.1633 5.22192 4.1633 5C4.1633 4.77808 4.25146 4.56525 4.40838 4.40833C4.5653 4.25141 4.77813 4.16325 5.00005 4.16325C5.22196 4.16325 5.43479 4.25141 5.59171 4.40833L10.5917 9.40833C10.7469 9.56447 10.834 9.77568 10.834 9.99583C10.834 10.216 10.7469 10.4272 10.5917 10.5833L5.59171 15.5833C5.51453 15.6621 5.4225 15.7247 5.32093 15.7676C5.21937 15.8105 5.1103 15.8329 5.00005 15.8333Z" fill="white"/>
</svg>
